<?xml version="1.0" standalone="no"?>
<!DOCTYPE svg PUBLIC "-//W3C//DTD SVG 20010904//EN"
 "http://www.w3.org/TR/2001/REC-SVG-20010904/DTD/svg10.dtd">
<svg version="1.0" xmlns="http://www.w3.org/2000/svg"
 width="1280.000000pt" height="1280.000000pt" viewBox="0 0 1280.000000 1280.000000"
 preserveAspectRatio="xMidYMid meet">
<metadata>
Created by potrace 1.15, written by Peter Selinger 2001-2017
</metadata>
<g transform="translate(0.000000,1280.000000) scale(0.100000,-0.100000)"
fill="#ffc107" stroke="none">
<path d="M5760 12793 c-19 -2 -60 -9 -90 -14 -30 -6 -91 -15 -135 -19 -44 -5
-120 -16 -170 -25 -49 -9 -115 -20 -145 -24 -30 -5 -71 -14 -90 -20 -19 -6
-49 -11 -67 -11 -17 0 -35 -4 -38 -10 -3 -5 -21 -10 -40 -10 -19 0 -46 -5 -62
-11 -15 -7 -46 -15 -68 -20 -108 -21 -140 -30 -149 -39 -6 -6 -23 -10 -38 -10
-16 0 -36 -4 -46 -9 -9 -4 -39 -15 -67 -23 -171 -52 -233 -72 -257 -84 -14 -8
-33 -14 -42 -14 -9 0 -24 -4 -34 -9 -15 -8 -41 -18 -127 -51 -103 -39 -186
-73 -265 -108 -143 -64 -191 -86 -245 -114 -210 -108 -285 -147 -322 -171 -24
-15 -45 -27 -48 -27 -4 0 -69 -38 -152 -88 -131 -79 -445 -294 -560 -384 -80
-62 -226 -179 -233 -187 -3 -4 -52 -46 -109 -96 -137 -117 -462 -442 -576
-575 -49 -58 -92 -107 -95 -110 -35 -29 -294 -371 -379 -499 -13 -20 -27 -38
-31 -41 -8 -7 -170 -268 -243 -391 -129 -222 -268 -503 -377 -764 -4 -11 -14
-36 -22 -55 -8 -19 -21 -51 -28 -70 -7 -19 -19 -49 -26 -67 -8 -17 -14 -38
-14 -46 0 -9 -4 -19 -10 -22 -5 -3 -10 -15 -10 -27 0 -11 -6 -32 -14 -46 -8
-15 -26 -67 -41 -117 -15 -49 -38 -124 -51 -165 -12 -41 -30 -102 -39 -135 -8
-33 -20 -74 -25 -91 -6 -17 -10 -38 -10 -48 0 -10 -7 -39 -15 -65 -8 -25 -19
-73 -25 -106 -6 -33 -16 -78 -22 -100 -6 -22 -14 -65 -19 -95 -4 -30 -15 -95
-24 -145 -9 -49 -20 -126 -25 -170 -4 -44 -14 -107 -22 -140 -10 -47 -13 -203
-13 -725 0 -522 3 -678 13 -725 8 -33 18 -96 22 -140 5 -44 16 -120 25 -170 9
-49 20 -115 24 -145 5 -30 13 -73 19 -95 6 -22 16 -67 22 -100 6 -33 17 -82
25 -110 8 -27 16 -61 19 -75 14 -70 29 -126 37 -134 5 -6 9 -21 9 -34 0 -13
11 -56 24 -95 13 -40 36 -112 51 -162 15 -49 33 -102 41 -117 8 -14 14 -35 14
-46 0 -12 4 -23 9 -26 5 -3 11 -16 14 -28 5 -24 50 -147 66 -183 5 -11 16 -38
26 -60 28 -69 33 -79 53 -125 104 -233 212 -446 319 -629 73 -124 235 -385
243 -391 4 -3 19 -23 33 -45 70 -107 343 -465 377 -495 3 -3 32 -36 65 -75
239 -280 573 -597 900 -853 72 -56 135 -106 140 -110 6 -5 24 -17 40 -28 17
-10 75 -51 130 -90 132 -93 337 -224 400 -254 11 -6 29 -16 40 -22 89 -57 352
-196 495 -260 30 -14 80 -36 110 -50 90 -42 157 -69 285 -118 11 -4 40 -15 65
-25 83 -32 148 -55 175 -62 11 -2 29 -8 40 -13 27 -11 98 -34 170 -55 33 -10
69 -21 80 -26 11 -4 34 -10 50 -13 17 -2 55 -12 85 -21 30 -10 76 -21 102 -25
26 -5 56 -13 67 -19 11 -6 32 -11 47 -11 15 0 41 -4 58 -9 39 -12 127 -31 191
-42 28 -5 91 -15 140 -24 50 -9 126 -20 170 -25 44 -4 127 -15 185 -24 154
-23 1206 -23 1360 0 58 9 141 20 185 24 44 5 121 16 170 25 50 9 113 20 140
24 62 10 150 29 191 42 17 5 43 9 58 9 15 0 36 5 47 11 11 6 41 14 67 19 26 4
72 15 102 25 30 9 69 19 85 21 17 3 39 9 50 13 11 5 47 16 80 26 64 19 137 42
170 55 47 17 91 32 110 37 11 2 29 8 40 13 21 8 97 37 130 50 62 24 125 49
200 80 11 4 47 20 80 35 33 16 85 39 115 53 64 29 79 36 264 132 128 66 179
94 231 128 11 6 29 16 40 22 120 58 488 308 713 484 290 228 710 624 866 816
15 19 45 53 65 75 56 61 201 242 276 345 58 80 113 157 134 189 13 20 27 38
31 41 8 6 220 347 220 354 0 2 22 40 48 83 27 43 97 177 157 298 117 238 138
285 195 420 4 11 15 36 24 57 9 20 16 41 16 47 0 6 4 19 9 29 17 33 78 196 88
237 2 11 8 29 12 40 16 40 33 91 41 120 5 17 16 55 25 85 9 30 19 66 22 80 2
14 9 34 14 45 9 21 25 83 38 150 5 22 13 53 20 68 6 16 11 40 11 54 0 15 4 40
9 57 13 42 32 130 41 191 5 28 16 93 25 145 10 52 21 129 25 170 5 41 14 104
22 140 10 50 13 211 13 720 0 509 -3 670 -13 720 -8 36 -17 99 -22 140 -4 41
-15 118 -25 170 -9 52 -20 118 -24 145 -5 28 -13 70 -19 95 -6 25 -15 72 -22
105 -6 33 -17 83 -25 110 -8 28 -16 61 -19 75 -14 70 -29 126 -37 135 -5 5 -9
20 -9 33 0 13 -11 56 -24 95 -13 40 -37 115 -54 167 -44 135 -60 182 -82 235
-6 17 -19 50 -27 75 -8 25 -21 60 -29 78 -13 31 -36 85 -54 127 -62 152 -268
559 -360 715 -101 169 -221 363 -230 370 -4 3 -18 21 -31 41 -21 32 -76 109
-134 189 -57 79 -229 297 -245 310 -3 3 -32 37 -65 75 -234 274 -581 604 -900
855 -199 157 -595 425 -710 480 -11 6 -29 16 -40 22 -56 37 -111 67 -210 118
-205 107 -230 119 -300 150 -201 90 -236 105 -380 160 -86 33 -112 43 -127 51
-10 5 -25 9 -34 9 -9 0 -28 6 -42 14 -24 12 -86 32 -257 84 -27 8 -58 19 -67
23 -10 5 -29 9 -44 9 -14 0 -35 5 -47 12 -21 11 -50 19 -142 37 -22 5 -53 13
-68 20 -16 6 -40 11 -54 11 -15 0 -40 4 -57 9 -40 12 -127 31 -191 42 -27 4
-88 15 -135 23 -47 9 -125 20 -175 26 -49 5 -110 15 -135 21 -43 11 -1285 22
-1370 12z m-696 -2504 c71 -12 157 -38 171 -50 5 -5 15 -9 23 -9 22 0 136 -79
272 -190 69 -55 165 -133 214 -173 49 -40 119 -97 156 -127 36 -30 84 -69 106
-87 21 -17 107 -86 189 -153 83 -66 190 -153 239 -193 76 -61 132 -107 251
-205 11 -10 54 -44 95 -77 41 -33 77 -62 80 -65 3 -3 61 -51 129 -105 68 -55
163 -131 211 -170 47 -38 131 -106 186 -150 54 -44 104 -84 110 -90 19 -17 55
-46 164 -134 58 -47 139 -112 180 -146 41 -34 134 -108 205 -165 72 -58 132
-107 135 -110 3 -3 66 -55 140 -115 74 -60 169 -136 210 -170 74 -60 199 -162
295 -239 28 -23 52 -43 55 -46 3 -3 64 -52 135 -109 72 -58 164 -132 205 -166
41 -34 109 -89 152 -123 191 -155 277 -297 308 -509 14 -95 5 -166 -36 -298
-56 -176 -114 -247 -380 -466 -351 -290 -449 -371 -489 -404 -22 -18 -110 -90
-195 -160 -318 -263 -451 -373 -600 -495 -84 -69 -210 -172 -280 -230 -70 -58
-210 -172 -310 -255 -100 -82 -240 -197 -309 -255 -70 -58 -147 -121 -171
-140 -24 -19 -71 -58 -104 -86 -34 -27 -99 -81 -146 -119 -47 -38 -94 -77
-105 -86 -18 -16 -105 -88 -196 -162 -19 -16 -52 -43 -73 -60 -22 -18 -85 -70
-140 -115 -56 -46 -119 -99 -141 -117 -38 -31 -239 -196 -456 -375 -128 -106
-198 -159 -224 -171 -11 -5 -27 -13 -35 -18 -15 -9 -30 -15 -105 -44 -105 -41
-335 -41 -440 0 -74 28 -90 35 -105 44 -8 5 -29 16 -47 24 -45 23 -149 120
-192 179 -119 164 -166 371 -125 551 16 72 18 78 50 155 45 107 129 206 277
325 33 26 69 55 80 65 43 36 224 186 267 220 24 19 89 73 144 118 56 46 119
99 141 117 22 17 110 90 196 161 86 71 225 185 309 254 291 238 877 721 1445
1190 88 72 178 146 200 164 22 18 108 89 190 157 83 68 178 147 212 174 69 55
79 82 39 108 -13 9 -29 22 -37 29 -8 7 -70 58 -138 113 -296 238 -494 398
-501 405 -5 6 -110 91 -420 342 -80 64 -199 161 -266 215 -66 54 -156 127
-200 162 -43 36 -115 94 -159 130 -44 36 -102 83 -130 105 -27 23 -52 43 -55
46 -3 3 -39 32 -80 65 -41 33 -77 62 -80 65 -3 3 -59 49 -125 101 -66 53 -163
131 -215 174 -52 43 -138 112 -190 154 -97 78 -134 108 -154 126 -10 10 -100
82 -370 299 -196 156 -273 225 -315 280 -43 57 -101 159 -101 177 0 6 -6 25
-14 42 -14 30 -17 49 -32 176 -9 74 14 210 51 296 7 17 16 37 19 45 32 79 143
203 236 264 77 51 207 105 255 107 16 1 41 5 55 9 37 12 135 11 204 -1z"/>
</g>
</svg>
